<?xml version="1.0" encoding="UTF-8"?><svg id="Artwork_-_Edit_Me" xmlns="http://www.w3.org/2000/svg" xmlns:xlink="http://www.w3.org/1999/xlink" viewBox="0 0 1033.71 1025.41"><defs><style>.cls-1{fill:#ff9a8a;}.cls-2{fill:#fff;stroke-width:2px;}.cls-2,.cls-3,.cls-4,.cls-5{stroke:#fff;stroke-miterlimit:10;}.cls-3{fill:#e7ff7f;filter:url(#drop-shadow-1);}.cls-3,.cls-4,.cls-5{stroke-width:48px;}.cls-4{fill:#ff3f3f;filter:url(#drop-shadow-3);}.cls-5{fill:#1791ff;filter:url(#drop-shadow-2);}</style><filter id="drop-shadow-1" filterUnits="userSpaceOnUse"><feOffset dx="0" dy="-5"/><feGaussianBlur result="blur" stdDeviation="30"/><feFlood flood-color="#000" flood-opacity=".25"/><feComposite in2="blur" operator="in"/><feComposite in="SourceGraphic"/></filter><filter id="drop-shadow-2" filterUnits="userSpaceOnUse"><feOffset dx="0" dy="-5"/><feGaussianBlur result="blur-2" stdDeviation="30"/><feFlood flood-color="#000" flood-opacity=".25"/><feComposite in2="blur-2" operator="in"/><feComposite in="SourceGraphic"/></filter><filter id="drop-shadow-3" filterUnits="userSpaceOnUse"><feOffset dx="0" dy="-5"/><feGaussianBlur result="blur-3" stdDeviation="30"/><feFlood flood-color="#000" flood-opacity=".25"/><feComposite in2="blur-3" operator="in"/><feComposite in="SourceGraphic"/></filter></defs><rect class="cls-1" x="9" y=".71" width="1024" height="1024" rx="224.92" ry="224.92"/><path class="cls-3" d="M375.16,577.97l237.94-393.62c24.85-41.1,79.26-54.48,121.55-29.88l137.8,80.18c42.28,24.6,56.41,77.86,31.57,118.97l-237.94,393.62c-24.85,41.1-79.26,54.48-121.55,29.88l-137.8-80.18c-42.28-24.6-56.41-77.86-31.57-118.97Z"/><rect class="cls-5" x="185.66" y="319.34" width="631.88" height="337.6" rx="90" ry="90" transform="translate(989.74 -13.46) rotate(90)"/><path class="cls-4" d="M360.85,844.46L125.92,447.39c-24.53-41.46-9.97-94.48,32.52-118.42l138.49-78.02c42.49-23.94,96.83-9.73,121.36,31.73l234.94,397.07c24.53,41.46,9.97,94.48-32.52,118.42l-138.49,78.02c-42.49,23.94-96.83,9.73-121.36-31.73Z"/><rect class="cls-2" x="533" y="685.71" width="71" height="71" rx="35.5" ry="35.5"/></svg>