<?xml version="1.0" encoding="UTF-8"?><svg id="Layer_1" xmlns="http://www.w3.org/2000/svg" xmlns:xlink="http://www.w3.org/1999/xlink" viewBox="0 0 126 126"><defs><style>.cls-1{fill:none;}.cls-2{clip-path:url(#clippath);}.cls-3{fill:#ffd0d0;filter:url(#drop-shadow-1);}.cls-3,.cls-4,.cls-5,.cls-6{stroke:#fff;stroke-miterlimit:10;stroke-width:2px;}.cls-4{fill:#ffec8a;filter:url(#drop-shadow-2);}.cls-5{fill:#f55;filter:url(#drop-shadow-4);}.cls-7{fill:#fff;}.cls-6{fill:#9497ff;filter:url(#drop-shadow-3);}.cls-8{fill:url(#radial-gradient);}</style><filter id="drop-shadow-1" filterUnits="userSpaceOnUse"><feOffset dx="5" dy="5"/><feGaussianBlur result="blur" stdDeviation="10"/><feFlood flood-color="#000" flood-opacity=".25"/><feComposite in2="blur" operator="in"/><feComposite in="SourceGraphic"/></filter><clipPath id="clippath"><rect class="cls-1" x="26" y="26" width="64" height="64" rx="8" ry="8"/></clipPath><filter id="drop-shadow-2" filterUnits="userSpaceOnUse"><feOffset dx="0" dy="0"/><feGaussianBlur result="blur-2" stdDeviation="10"/><feFlood flood-color="#777" flood-opacity=".25"/><feComposite in2="blur-2" operator="in"/><feComposite in="SourceGraphic"/></filter><filter id="drop-shadow-3" filterUnits="userSpaceOnUse"><feOffset dx="0" dy="0"/><feGaussianBlur result="blur-3" stdDeviation="10"/><feFlood flood-color="#777" flood-opacity=".25"/><feComposite in2="blur-3" operator="in"/><feComposite in="SourceGraphic"/></filter><filter id="drop-shadow-4" filterUnits="userSpaceOnUse"><feOffset dx="0" dy="0"/><feGaussianBlur result="blur-4" stdDeviation="10"/><feFlood flood-color="#777" flood-opacity=".25"/><feComposite in2="blur-4" operator="in"/><feComposite in="SourceGraphic"/></filter><radialGradient id="radial-gradient" cx="70" cy="70" fx="70" fy="70" r="4" gradientUnits="userSpaceOnUse"><stop offset=".44" stop-color="#fff"/><stop offset=".63" stop-color="#fcfcfc"/><stop offset=".75" stop-color="#f3f3f3"/><stop offset=".85" stop-color="#e5e5e5"/><stop offset=".94" stop-color="#d0d0d0"/><stop offset="1" stop-color="#bfbfbf"/></radialGradient></defs><rect class="cls-3" x="26" y="26" width="64" height="64" rx="8" ry="8"/><g class="cls-2"><g><rect class="cls-4" x="58" y="34" width="24" height="48" rx="4" ry="4"/><rect class="cls-6" x="46.49" y="35.17" width="24" height="46.63" rx="4" ry="4" transform="translate(-24.23 58.49) rotate(-45)"/><rect class="cls-5" x="46" y="46" width="24" height="48" rx="4" ry="4" transform="translate(-12 128) rotate(-90)"/><rect class="cls-8" x="66" y="66" width="8" height="8" rx="4" ry="4"/></g></g><path class="cls-7" d="M82,28c3.31,0,6,2.69,6,6v48c0,3.31-2.69,6-6,6H34c-3.31,0-6-2.69-6-6V34c0-3.31,2.69-6,6-6h48m0-2H34c-4.42,0-8,3.58-8,8v48c0,4.42,3.58,8,8,8h48c4.42,0,8-3.58,8-8V34c0-4.42-3.58-8-8-8h0Z"/></svg>