<?xml version="1.0" encoding="UTF-8"?><svg id="Layer_1" xmlns="http://www.w3.org/2000/svg" xmlns:xlink="http://www.w3.org/1999/xlink" viewBox="0 0 108 108"><defs><style>.cls-1{fill:#ffec8a;filter:url(#drop-shadow-1);}.cls-1,.cls-2,.cls-3{stroke:#fff;stroke-miterlimit:10;stroke-width:2px;}.cls-2{fill:#f55;filter:url(#drop-shadow-3);}.cls-4{fill:#fff;}.cls-5{fill:#fff4f4;}.cls-3{fill:#9497ff;filter:url(#drop-shadow-2);}.cls-6{fill:url(#radial-gradient);}</style><filter id="drop-shadow-1" filterUnits="userSpaceOnUse"><feOffset dx="0" dy="0"/><feGaussianBlur result="blur" stdDeviation="10"/><feFlood flood-color="#777" flood-opacity=".25"/><feComposite in2="blur" operator="in"/><feComposite in="SourceGraphic"/></filter><filter id="drop-shadow-2" filterUnits="userSpaceOnUse"><feOffset dx="0" dy="0"/><feGaussianBlur result="blur-2" stdDeviation="10"/><feFlood flood-color="#777" flood-opacity=".25"/><feComposite in2="blur-2" operator="in"/><feComposite in="SourceGraphic"/></filter><filter id="drop-shadow-3" filterUnits="userSpaceOnUse"><feOffset dx="0" dy="0"/><feGaussianBlur result="blur-3" stdDeviation="10"/><feFlood flood-color="#777" flood-opacity=".25"/><feComposite in2="blur-3" operator="in"/><feComposite in="SourceGraphic"/></filter><radialGradient id="radial-gradient" cx="66" cy="66" fx="66" fy="66" r="4" gradientUnits="userSpaceOnUse"><stop offset=".44" stop-color="#fff"/><stop offset=".63" stop-color="#fcfcfc"/><stop offset=".75" stop-color="#f3f3f3"/><stop offset=".85" stop-color="#e5e5e5"/><stop offset=".94" stop-color="#d0d0d0"/><stop offset="1" stop-color="#bfbfbf"/></radialGradient></defs><g><rect class="cls-4" x="23" y="23" width="62" height="62" rx="7" ry="7"/><path class="cls-4" d="M78,24c3.31,0,6,2.69,6,6v48c0,3.31-2.69,6-6,6H30c-3.31,0-6-2.69-6-6V30c0-3.31,2.69-6,6-6h48m0-2H30c-4.42,0-8,3.58-8,8v48c0,4.42,3.58,8,8,8h48c4.42,0,8-3.58,8-8V30c0-4.42-3.58-8-8-8h0Z"/></g><g><rect class="cls-5" x="23" y="23" width="62" height="62" rx="7" ry="7"/><path class="cls-4" d="M78,24c3.31,0,6,2.69,6,6v48c0,3.31-2.69,6-6,6H30c-3.31,0-6-2.69-6-6V30c0-3.31,2.69-6,6-6h48m0-2H30c-4.42,0-8,3.58-8,8v48c0,4.42,3.58,8,8,8h48c4.42,0,8-3.58,8-8V30c0-4.42-3.58-8-8-8h0Z"/></g><rect class="cls-1" x="54" y="30" width="24" height="48" rx="4" ry="4"/><rect class="cls-3" x="42.49" y="31.17" width="24" height="46.63" rx="4" ry="4" transform="translate(-22.57 54.49) rotate(-45)"/><rect class="cls-2" x="42" y="42" width="24" height="48" rx="4" ry="4" transform="translate(-12 120) rotate(-90)"/><rect class="cls-6" x="62" y="62" width="8" height="8" rx="4" ry="4"/></svg>